<svg xmlns="http://www.w3.org/2000/svg" width="400" height="400" fill-rule="evenodd" viewBox="0 0 400 NaN"><defs/><path fill="#aab9c0" d="M138.2 32c-.1.2-.7.3-1.4.1a3 3 0 00-2 .4c-.7.4-2.1.7-4.3.7-1.8 0-3.3.2-3.3.4 0 .3-1.8.6-6 1-1.2.2-2.4.4-2.6.6s-1 .4-1.7.4-1.4.2-1.5.4-.9.4-1.6.4-1.4.2-1.4.4-.3.4-.8.4-.9.2-1 .4-.7.4-1.2.4-1 .2-1 .4-.6.4-1.4.4-1.5.2-1.6.4-.6.4-1 .4-.8.2-.8.4-.6.4-1.3.4c-.8 0-1.7.3-2.2.8-.5.4-1.3.8-1.9.8s-1 .2-1 .4-.2.4-.4.4A63.1 63.1 0 0080 52.1l-1.1.7c-.1 0-.9.5-1.5 1.1L74.8 56a128.7 128.7 0 00-14.6 14c-.3 0-.6.2-.6.4s-.6 1-1.3 1.7L56 74.8l-2.1 2.6c-.6.6-1.1 1.3-1.1 1.6s-.4.6-.8 1-.8.6-.8.8-.4.8-.8 1.3-.8 1-.8 1.4-.2.5-.4.5-.4.2-.4.4-.7 1.6-1.6 3-1.6 2.9-1.6 3-.3.7-.6 1-.5.8-.4 1 0 .4-.2.4-.4.1-.3.3-.4 1.2-1 2.4-1.1 2.5-1.1 3-.2 1.1-.4 1.1-.4.4-.4.8-.2.7-.4.6c-.2-.1-.4.3-.4 1 0 .6-.2 1.3-.4 1.4s-.4.6-.4 1-.2.8-.4.8-.4.4-.4 1-.2 1-.4 1.2-.4.8-.4 1.4-.2 1.2-.4 1.2-.4.4-.4.8-.2.8-.4.8-.4.9-.4 2-.2 2-.4 2-.4.4-.4 1-.2 1-.4 1.2-.4 1-.4 2-.1 1.8-.3 1.8-.4 1-.5 2-.2 2.3-.4 2.4-.3 1.3-.4 2.7-.3 3-.7 3.7c-.4.9-.5 1.8-.3 3a191.2 191.2 0 00-.5 22.7v20.5l.3-18.2.2-18.2.1 18.4.1 18.3 1.7-.2 4.3-.7a334 334 0 0120.5-.4l19-.3 1.3-.2v-21c0-13.7.1-20.9.4-20.9.2 0 .4-1 .4-2 0-1.3.2-2 .4-1.8s.4-.5.4-1.6c0-1 .2-1.9.4-2s.4-.8.4-1.4.2-1.2.4-1.2.4-.5.4-1.2.2-1.2.4-1.2.4-.3.4-.7.4-1.5.8-2.4.8-2 .8-2.3.1-.6.3-.6 1-1.3 1.7-2.8 1.5-2.8 1.7-2.8.2-.2.1-.4 0-.6.4-1 .5-.6.3-.8 0-.2.2-.2.5-.3.5-.6.5-1 1.2-1.8 1.2-1.5 1.2-1.9.2-.4.4-.3c.4.2.4 0 .4-.8 0-.4 1-1.3 1.3-1.1.2 0 .3 0 .3-.3a48.7 48.7 0 0110.9-10c.1-.4 4.2-3.2 4.6-3.2.2 0 .7-.3 1.1-.7 1.2-1 2.5-1.7 3.2-1.7.3 0 .6-.2.6-.4s.2-.4.4-.4l2-.8c.9-.4 2-.8 2.5-.8s.7-.2.7-.4.6-.4 1.4-.4 1.4-.2 1.4-.4.4-.4.8-.4.8-.2.8-.4.6-.4 1.4-.4 1.8-.2 2.2-.4 1.5-.4 2.6-.5 2-.2 2-.4.9-.3 1.6-.3 1.4-.2 1.4-.4a82 82 0 0117 .3c.9 0 1.8.3 2 .5s1.3.3 2.4.4 2.2.2 2.4.4.9.4 1.5.4 1.5.2 2 .4l1.5.8c.4.2 1.3.4 1.9.4s1.6.4 2.1.8 1.4.8 1.9.8.9.1.9.3 1 .7 2.2 1.3 2.2 1.1 2.2 1.3.1.3.3.2c.4 0 1.8.5 2.8 1.3a46 46 0 003.4 2.5l1 .7c.2 0 1.9 1.4 3.7 3.2s3.2 3 3.2 3c0-.4 2.5 2.7 4.6 5.6 1 1.4 2.1 2.6 2.3 2.6s.3.3.3.6.2.6.4.6.6.5.9 1.1l.7 1.3 1.2 2c.5 1 1 1.9 1.2 2 .2.2 1 1.7 1.7 3.5.2.7.6 1.2.8 1s.3.5.3 1.2.2 1.5.4 1.6.5.5.5 1 .2.9.4.9.3.5.3 1.2.2 1.2.4 1.2.4.7.4 1.6.2 1.6.3 1.6c.4 0 1 3.1 1 5l.5 4.6c.3 2.5.5 9.7.6 20.8 0 15.4 0 17 .7 17.5.5.4 4.9.5 18.7.5a249.3 249.3 0 0125.8 1h1.4v-18.4a273.6 273.6 0 00-1-30c-.2-.3-.4-1.6-.4-3s-.2-2.4-.4-2.4-.3-.9-.3-1.9-.3-2-.5-2.3-.4-1.2-.4-2.3-.2-1.9-.4-1.9-.4-.5-.4-1-.2-1-.4-1-.4-.8-.4-1.8-.2-1.8-.4-1.8-.4-.4-.4-.8-.2-.8-.4-.8-.4-.6-.4-1.4-.1-1.4-.3-1.4-.6-1-1-2-.6-2.1-.8-2.2-.3-.6-.3-1.1-.4-1.4-.8-1.9-.8-1.4-.8-1.8-.4-1.2-.8-1.6-.8-1.1-.8-1.7-.1-.9-.3-.9-.6-.6-.9-1.4-.7-1.4-.9-1.4-.3-.3-.3-.6c0-.6-.7-2-1.4-2.9-.3-.2-.7-1-1-1.7s-.7-1.2-.8-1.2-.4-.2-.4-.4c0-.8-3-5-5.6-7.6-1.3-1.4-2.4-2.7-2.4-2.9s-.5-.9-1.2-1.5-1.2-1.3-1.2-1.5-.4-.7-.8-.9-.8-.6-.8-.8c0-.6-1-1.6-1.6-1.6a65.5 65.5 0 00-14.7-13.4c-.7-.4-1.2-.9-1-1.1s0-.3-.2-.2-.7 0-1-.2l-1.6-1c-.6-.3-1.4-1-1.8-1.3a22 22 0 00-4.6-2.7c-.8-.4-1.5-.8-1.5-1s-.4-.3-.8-.3-.8-.2-.8-.4-.4-.4-.8-.4-.8-.2-.8-.4-.4-.4-.8-.4-.8-.2-.8-.4-.3-.4-.8-.4a1.9 1.9 0 01-1.2-.6c-.3-.3-1-.6-1.5-.6s-1.3-.4-1.8-.8-1.4-.8-2-.8-1.1-.2-1.1-.4-.5-.4-1-.4-1-.2-1-.4-.5-.4-1.2-.4-1.3-.2-1.4-.4-.8-.4-1.4-.4-1.2-.2-1.2-.4-.3-.4-.7-.4-1-.2-1.1-.4-1.1-.4-2-.5c-2.8-.4-4.2-.8-4.2-1.1 0-.2-1.2-.4-2.6-.4s-2.6-.2-2.6-.4c0-.4-2.1-.7-7-1a13 13 0 01-4-.8c-.5-.3-1.6-.5-2.7-.5-1 .1-1.8 0-1.7-.2s-2.4-.3-5.6-.3c-3.3 0-5.9.2-6 .4"/><path fill="#64747c" d="M32.2 160.4l.1 9.1v-18.2c0-5-.1-1-.1 9.1m144 41l-4.7 3-3.3 2a1337.7 1337.7 0 01-28.8 18.4l-14.2 9-26.6 17-13.2 8.4-9.2 5.8-10.6 6.8-6.5 4.1-1.5 1.1c0 .1 30 .2 66.7.2H191l.5-1.3a34.5 34.5 0 0121.9-19.4 36 36 0 0120 .7c25.5 10 30.4 42.4 8.9 58.6a33.5 33.5 0 01-51.1-14.8c0-.3-.3-.6-.6-.8-1-.3-133.4-.2-133.4.2a23 23 0 004.1 2.9l36.9 23.5 11.6 7.4 10 6.3 8 5.1 24 15.3c29 18.5 25.4 16.7 29.9 15.6l14.1-3.5 79.3-19.8c14-3.6 13.5-3.5 14.6-2.5.6.5.9.6 1 .2 0-.3.8-.5 1.7-.5.9 0 1.6-.2 1.6-.4s.7-.4 1.6-.4 1.6-.2 1.6-.4.6-.4 1.4-.4 1.5-.2 1.6-.4 1-.4 1.8-.4 1.6-.2 1.6-.4.7-.4 1.6-.4 1.7-.2 1.8-.4.9-.4 1.6-.4 1.5-.2 1.6-.4.9-.4 1.6-.4 1.5-.2 1.6-.4.9-.4 1.6-.4 1.5-.2 1.6-.4.9-.4 1.6-.4 1.4-.2 1.4-.4.7-.4 1.6-.4 1.6-.2 1.6-.4.7-.4 1.6-.4 1.6-.2 1.6-.4.7-.4 1.6-.4 1.6-.2 1.6-.3.8-.5 1.7-.7c4.9-.7 4.7-.6 4.7-1.7 0-.6-4.6-10.3-10.2-21.6-15.2-30.5-15.2-26.5.3-57.4 11-22.2 10.8-21.6 7.6-21.8-1 0-1.7-.3-1.7-.5s-.7-.4-1.6-.4-1.6-.2-1.6-.4-.7-.4-1.6-.4-1.6-.2-1.6-.4-.6-.4-1.4-.4-1.5-.2-1.6-.4-.9-.4-1.6-.4-1.5-.2-1.6-.4-.9-.4-1.6-.4-1.5-.2-1.6-.4-.9-.4-1.6-.4-1.4-.1-1.5-.3a42.5 42.5 0 00-8.3-2.6 109 109 0 00-12.6-3.1c-.7-.3-1.4-.2-2.1.1-.6.3-1.5.5-1.9.4a16542.8 16542.8 0 01-77.2-19.2l-3.3-.9-3.2-.8-6.5-1.6-3.3-.8-3.1-.8-3.2-.8-3.1-.8-7-1.6-1.7 1"/><path fill="#2c2c34" d="M209.8 160.4l.1 8.3v-16.6c0-4.6-.1-.8-.1 8.3m155 38.3a31 31 0 00-3.3 1.3 3.8 3.8 0 01-1.4.4c-1 0-3.3 1.2-3.3 1.7 0 .2-.2.2-.4.1s-.4 0-.4.1-.5.6-1 1c-1.4.6-4.6 3.7-4.6 4.3 0 .2-.4.8-.8 1.3s-.8 1-.8 1.4-.2.5-.4.5-.4.4-.4 1-.1 1-.3 1a47.8 47.8 0 00-4.3 8.4l-1.4 3a16 16 0 01-1.9 3.8c-1.3 3-2.3 5-2.6 5.1-.2.1-.2.3-.1.5s0 .6-.4 1-.6.7-.6.8c.1.5-1 2.6-1.3 2.6l.2.8c.4.7-.7 3.2-9.6 21-15.5 31-15.5 27-.3 57.5a155.6 155.6 0 0110.2 22c0 .8.2 1.6.4 1.7s.4.7.4 1.2.2 1 .4 1 .4.4.4.8.2.8.4.8.4.3.4.6.2.5.4.4.4-.1.4 0c-.2.9 0 1.8.3 1.7.2-.2.4.2.4.8s.4 1.2.7 1.6.5.7.4 1 0 .3.1.3.6.7 1 1.5l2.2 4.8 1.7 3.8c0 .2.4.7.9 1.2s.7.6.4.5c-.3-.1-.2.3.3 1.2.4.8.8 1.7.8 2s.2.6.4.6.4.4.4.8.2.8.4.8.6.6 1 1.4c.7 1.6 4 5 5.5 5.8.6.3 1.1.7 1.1.9s.4.3.8.3.8.2.8.4.5.4 1.2.4 1.2.1 1.2.3.5.4 1 .4 1.3.3 1.6.5c.2.3 7 .4 18.5.4H400V198.9l-.9-.2c-1-.3-33.4-.3-34.3 0"/><path fill="#fbab34" d="M78.6 177.3c-.6.4-6.1.6-20.8.7-15 .2-20.5.4-22 .8s-2.1.4-3.5 0c-1-.4-1.8-.4-2.2-.1l-2.6 1c-1 .3-1.9.6-1.9.8s-.4.3-.8.3-.8.2-.8.4-.4.4-.8.4-.8.2-.8.4-.4.4-.8.4-.8.1-.8.3-.5.6-1.1 1-1.4.8-1.7 1.2-1 .7-1.2.7a57.9 57.9 0 00-10.8 12c0 .5-.2.8-.4.8s-.4.4-.4 1-.2 1-.4 1-.4.4-.4.8-.2.8-.4.8-.4.4-.4.8-.2.8-.4.8-.4.4-.4.8-.2.8-.4.8-.4.5-.4 1.2-.2 1.2-.4 1.2-.4.4-.4 1-.2 1-.5 1.3c-.7.8-.7 157 0 157.8.3.2.5 1 .5 1.8s.2 1.3.4 1.3.4.4.4 1 .2 1 .4 1 .4.4.4 1 .2 1 .4 1.2.4.6.4 1 .2.8.4.8.4.2.4.5.4 1 .8 1.4.8 1.1.8 1.4.4.8.8 1.1.8.8.8 1.1.5 1.1 1.2 1.8 1.6 2 2 2.7a10.3 10.3 0 002.4 2.3l2.7 2.1c.7.6 1.5 1.2 1.8 1.2s.8.4 1.1.8.8.8 1.1.8 1 .4 1.4.8 1 .8 1.4.8.5.2.5.4.3.4.8.4.9.2 1 .4.7.4 1.2.4 1 .2 1 .4.4.4 1 .4 1 .2 1 .4.6.4 1.3.4 1.6.2 1.8.5c.8.7 224.2.7 224.4 0 0-.3.8-.5 1.5-.5s1.4-.2 1.4-.4.4-.4.8-.4.8-.2.8-.4.5-.4 1.2-.4 1.2-.2 1.2-.4.4-.4.8-.4.8-.2.8-.4.3-.4.8-.4.8-.1.9-.3 1-.7 2-1.3 1.9-1 1.9-1.3.2-.3.4-.3a35.8 35.8 0 0010.8-10.5c.3-.6.7-1.1.9-1.1s.3-.3.3-.6.4-1 .8-1.5.8-1 .8-1.4.2-.5.4-.5.4-.3.4-.6l.4-1.3.8-1.9.8-1.9c.1-.4.4-1.1.4-1.7s.2-1 .4-1.2a58 58 0 001.8-13.5l.3-3.4-1.2-.3c-1.1-.2-15.1 3-32.2 7.4l-3 .8-6.4 1.6-42.3 10.5-3.1.7-3.1.8-3.2.8-3.1.8-7.9 2c-7.9 2-7 2-10.8-.5l-8.2-5.2-6.4-4.1-15.6-9.8-11.6-7.4-12.2-7.8-7-4.5-9.6-6-9.8-6.3-9.8-6.2-12.8-8.2-10.9-7c-4.6-3-4.8-3.2-3.4-3.5 1.1-.4 132.6-.4 133.7 0 .5 0 1.4 1.4 2.5 3.6a32.7 32.7 0 1029.7-47.2c-14 0-24.7 6.7-30.4 19.1a9 9 0 01-1.5 2.5c-.7.5-132 .8-134 .2-1.8-.4-1.2-.9 13.7-10.3l10.2-6.5 11.2-7.2 8-5 14-9 9.1-5.7 6-3.8a252.8 252.8 0 009-5.8 1004.6 1004.6 0 0120.8-13.3l5.5-3.4c9-5.8 13-8.1 13.8-8.1.8 0 23.4 5.4 30.4 7.2l3 .8 3 .8 25 6.2 36 9c8.6 2.2 13 3.1 13.7 3l1.2-.3-.3-3.2-.4-6.7c-.2-1.9-.4-3.6-.6-3.8s-.4-1-.4-1.7-.2-1.4-.4-1.5-.4-.8-.4-1.4-.2-1.3-.4-1.4-.4-.6-.4-1-.2-.8-.4-.8-.4-.4-.4-1-.2-1-.4-1.2-.4-.6-.4-1-.2-.8-.4-.8-.4-.3-.5-.7a37 37 0 00-3.2-5.5 81.4 81.4 0 00-11.7-11c-.3 0-.6-.2-.6-.4s-.4-.4-.8-.4-.8-.2-.8-.4-.4-.4-.8-.4-.8-.2-.8-.4-.4-.4-.8-.4-.8-.2-.8-.4-.4-.4-.8-.4-.8-.2-.8-.4-.4-.4-.8-.4-.8-.2-.8-.4-.5-.4-1.2-.4-1.2-.2-1.2-.4c0-.3-.5-.4-1.5-.2-2.4.4-3.3.4-6.6-.1-2-.3-9.4-.5-21.2-.5-15.3 0-18.2-.1-18.9-.6-1-.8-130.7-.9-132 0"/><path fill="#bc9556" d="M57.6 177.6c-16.7.2-20.6.4-22.6 1-2.6.7-2 .6 3.8-.2 1.4-.2 10.7-.4 20.6-.4 11 0 18.2-.2 18.6-.4.3-.2.4-.4.2-.3l-20.6.3m153.5.1c0 .2 8.4.3 18.4.3s19.4.2 20.7.4c5.8.8 5.7.8 3.4.1-2.4-.7-43-1.5-42.5-.8m-37.3 24.4l-15 9.5-18.5 11.9-2.1 1.3-4.3 2.7-4.8 3.1-6 3.8-9.1 5.7-14 9-8 5-11.2 7.2-10.2 6.5c-15 9.4-15.5 9.9-13.7 10.3 2 .6 133.3.3 134-.2a9 9 0 001.5-2.5 31.3 31.3 0 0130.4-19 32.7 32.7 0 11-29.7 47.2c-1.1-2.3-2-3.6-2.5-3.8-1-.3-132.6-.3-133.7 0-1.4.4-1.2.6 3.4 3.6l10.9 7 12.8 8.2 9.8 6.2 9.8 6.2 9.6 6.1 7 4.5 12.2 7.8 11.6 7.4 15.6 9.8 6.4 4 8.2 5.3c3.8 2.5 3 2.5 10.8.5l8-2 3.1-.8 3-.8 6.5-1.6 42.1-10.4 6.4-1.6 3-.8c15.8-4 31.1-7.6 32-7.4 1 .2 1 .2.5-.4-.7-.9-.8-.9-14.5 2.6L195.8 373l-14.1 3.5c-4.4 1-2.6 1.9-20.7-9.7l-9.2-5.9-24-15.3-8-5-10-6.4-11.6-7.4-36.9-23.5a23 23 0 01-4.1-3c0-.3 132.3-.4 133.4 0 .3 0 .6.4.6.7a33.7 33.7 0 0046 18 33.6 33.6 0 0013-48.8 36.2 36.2 0 00-19-13.7 33.8 33.8 0 00-39.7 19.4l-.5 1.3h-66.7c-36.7 0-66.7 0-66.7-.2s.7-.5 1.5-1l6.5-4.2 10.6-6.8 9.2-5.8 13.2-8.4 26.6-17 14.2-9 25-16 3.8-2.4c.1 0 1.8-1 3.7-2.3 6.2-4.2 5.4-4 13.1-2l3.1.7 3 .8 3.3.8 3.4.9 3 .7 3.2.8 3.3.8 6.1 1.6 74.6 18.6c.4 0 1.1-.2 1.6-.5 1-.5 1-.5-.2-.3-.8.1-5.4-.8-13.8-3l-36-9-24.9-6.2-3.2-.8-3.1-.8a733.2 733.2 0 00-30.3-7.2c-.6 0-2.5 1-4.3 2"/></svg>